<?xml version="1.0" encoding="UTF-8"?>
<svg xmlns="http://www.w3.org/2000/svg" version="1.1" viewBox="0 0 595.28 841.89">
  <!-- Generator: Adobe Illustrator 29.5.0, SVG Export Plug-In . SVG Version: 2.1.0 Build 137)  -->
  <defs>
    <style>
      .st0 {
        fill: #46a980;
      }

      .st1 {
        fill: #00aed7;
      }

      .st2 {
        fill: #285068;
      }

      .st3 {
        fill: #295068;
      }

      .st4 {
        fill: #84c17e;
      }
    </style>
  </defs>
  <g id="logo_svg">
    <path class="st2" d="M272.39,294.35c-.28.09.21.08,0,0-.47-.18.84-.7,2.61-10.96.67-3.9.26-9.52-.78-15.65-1.18-3.87-2.96-9.9-7.7-15.47-3.83-4.51-6.58-7.95-8.14-9.32-15.96-13.96-41.41-12.25-44.67-11.72-7.28,1.18-16.06,6.54-20.28,10.74-10.58,10.54-6.45,6.45-10.47,11.93-1.11,1.52-7.84,12.04-7.48,24.99.39,14.38,9.11,26.58,8.49,26.93-17.22,9.91-28.69,21.95-37.04,31.83-16.64,19.66-23.23,39.6-26.09,48.52-2.5,7.83-13.17,43.42-2.09,87.13,3.44,13.58,18.63,65.97,71.48,98.61,49.84,30.78,99.81,23.4,115.3,20.87,44.87-7.34,74.04-30.41,86.09-40.17,14.12-11.45,38.47-31.7,52.7-67.83,5.07-12.89,12.48-36.98,9.91-67.3-1.06-12.49-4.59-48.36-31.83-80.35-28.51-33.49-73.54-49.22-112.7-48-16.7.52-37.3,5.22-37.3,5.22Z"/>
    <ellipse class="st2" cx="225.29" cy="279.33" rx="49.71" ry="51.26"/>
  </g>
  <g id="mundo">
    <path class="st4" d="M288.7,404.97c.78-1.66,4.16-5.18,4.55-5.77.9-1.35,1.9-2,2.89-3.03,1.12-1.17,3.2-2.61,3.42-2.84.78-.8,3.23-2.03,3.96-2.49,1.26-.8,3.12-1.54,3.96-1.76,1.71-.44,6.8-1.52,9.15-.88,4.73,1.28,6.6,3.62,8.12,5.87,1.22,1.81,1.96,4.5,6.21,4.5,5.24,0,9.7.32,10.08.32,4.21-.05,6.65,2.13,7.83,2.32,5.45.91,6.48-.29,6.99-.68,1.91-1.47,1.91-4.01,1.91-5.67s-.73-5.62-5.28-6.65c0,0-9.44-.44-11.98-1.42s-4.22-4.31-6.66-7.14c-1.74-2.02-12.24-1.92-12.65-1.83-3.7.81-9.34,1.91-11.64-.2-4.03-3.69-3.03-7.92-3.34-9.36-.16-.73-.22-1.25-.08-1.73.39-1.38.82-2.3,2.28-3.84,2.5-2.64,3.52-2.1,4.82-2.4,5.62-1.26,8.14,2.34,11.88-.21,4.37-2.99,2.9-3.41,3.91-4.57,1.6-1.83.39-8.34.52-10.7.07-1.13-.13-2.13.43-3.49.22-.53.68-1,1.79-2.11,6.77-6.77,14.85-9.36,13.04-12.52-1.19-2.07-9.52-7.7-15.13-5.74-4.06,1.41-5.09,3.52-13.3,10.43-3.58,3.01-5.72,2.23-8.48,2.48-4.17.37-5.7-1.62-9.52-.26-.93.33-3.67,1.95-5.87,3.52-.73.52-2.74,2.61-3.02,3.26-.71,1.67-2.35,7.04-.57,9.36,4.79,6.26,1.94,11.83-2.74,13.7-4.57,1.83-6.6,2.35-12.65,5.61-2.53,1.37-2.48,1.34-9.38,3.41-2.43.73-5.35,2.15-9.64,4.99-3.15,2.08-9.5,7.18-10.03,7.73-1.74,1.83-4.85,3.64-7.83,8.07-2.55,3.79-5.6,7.67-7.4,13.63-1.13,3.74-1.39,6.52-1.57,8.48-.41,4.56-.25,6.67.03,7.57.75,2.42,1.49,4.42,1.76,4.76.94,1.18,1.63,2.14,3.52,3.52,2.28,1.66,3.91,2.58,4.43,2.87,2.24,1.23,2.9,1.53,6.07,3.13,2.32,1.17,3.81,1.69,4.76,2.41.63.48,3.11,1.79,4.89,4.7.42.68,1.92,2.54,2.69,4.17,1.42,3.04.96,2.55,1.06,3,.13.55.34,1.63.39,3,.06,1.78-.18,3.22-.39,4.17-.54,2.48-.9,4.64-4.27,12.13-.68,1.51-1.77,3.63-1.76,5.67.02,3.94-1.24,3.56-1.24,3.56,0,0-2.13-5.94-6.94-12.65-1.4-1.95-1.7-2.47-5.09-5.18-3.46-2.78-5.73-5.32-6.65-6.39-1.68-1.96-2.66-3.41-4.57-6.26-2.93-4.37-4.39-6.56-5.74-9.78-1.51-3.61-2.11-6.6-2.48-8.48-.26-1.32-1.3-4.7-2.05-8.54-.66-3.38-1.33-6.02-1.5-6.39-1.17-2.61-1.25-4.81-6.52-9.33-5.41-4.64-7.08-6.71-10.5-9.85-5.54-5.09,8.04-45.48,40.66-69.85,16.27-12.15,32.49-17.54,38.74-19.57,6.81-2.2,19.91-6.33,37.57-6.65,6.58-.12,26.67.06,50.09,9.78,19.94,8.28,32.46,19.4,39.13,25.43,28.95,26.18,37.16,54,34.43,60.65-.17.41-1.22,2.8-2.35,6.26-.35,1.08-1.41,4.42-2.35,9-1.08,5.3-.82,7.69-.76,10.32.02,1.01-.67,3.99-1.59,7.29-.52,1.89-1.55,2.4-2.23,2.15-.38-.14-2.38-.67-2.75-1.06-4.06-4.26-3.21-6.16-6.29-12.2-2.44-4.79-1.73-4.82-5.04-10.47-3.18-5.43-5.33-6.66-7.92-7.53-2.58-.87-2.41-1.01-6.7-.93-5.09.09-9.24-2.84-10.96-3.03-.97-.11-.77-.12-.93.88-.27,1.68.29,3.5.57,3.76,1.24,1.16,1.61,1.69,3.25,2.99,1.04.83,1.47,1.21,2.59,2.2,1.56,1.39.84.56,2.93,2.2,1.31,1.02,2.03,1.65,2.15,1.96.34.84,1.21,1.32,1.32,2.61.1,1.17-.2,2.45-.59,3.39-.43,1.04-1.67,1.8-2.25,2.66-.49.71-1.17,1.39-2.45,2.56-1.94,1.79-2.84,2.07-3.32,2.39-.42.28-1.47,2.9-4.12,3.55-1.91.47-3.05.69-4.96.07-1.43-.47-3.51-2.55-4.75-3.74-.55-.53-2.38-2.47-3.78-5.61-.92-2.07-.68-1.79-1.28-2.68-.19-.28-.42-1.32-.78-1.66-.43-.41-.73-.73-1.22-1.37-.52-.68-1.06-1.14-1.4-1.53,0,0-.83-.98-1.05-1.25-.64-.81-2.15-3.28-3.33-4.89-.47-.64-1.69-.87-2.05-.59-.44.34.02,4.21.05,4.7.32,4.65,1.75,6.3,2.45,8.07.49,1.24,2.35,3.13,5.15,6.72,4.27,5.48,4.04,7.05,4.58,7.42.84.57,2.7,2.59,6.45,2.86,3.71.27,5.08-1.17,6.91,0,1.68,1.07,2.5,3.54,1.96,5.35-.4,1.34-1.36,1.64-2.87,3-3.47,3.11-2.33,4.97-5.48,8.09-2.63,2.6-3.74,1.6-6,4.3-1.79,2.14-2.52,4.45-3,6-.62,1.97-.76,3.44-1.04,6.26-.46,4.58.28,3.66-.13,6.26-.02.14-.37,2.36.39,2.87.14.09.31.15.31.15s.6.2,1.39-.15c1.22-.54,4.29-3.97,4.96-4.7,1.6-1.74,1.48-2.76,4.85-5.94.69-.65,1.23-1.15,1.83-1.89.9-1.12,2.71-1.01,3.65-.36.45.31.71.27,1.57,1.57.39.59.29,1.8.36,2.09.26,1.11-.3,3.03-.95,4.27-1.07,2.05-.65,1.53-1.91,4.05-.16.32-.42,1.49-1.57,3.52-1.91,3.41-7.61,13.55-15.52,16.17-1.82.6-4.07.91-6,1.17-2.73.37-3.12.18-3.26,0-.3-.4.49.82,2.38-2.09.78-1.2,3.34-3.23,4.43-4.86.69-1.03.58-.9,2.02-2.77,1.04-1.35,1.24-1.65,1.86-2.71.97-1.67.87-2.86.72-3.62-.09-.42.25-1.72-3.45-3.91-.94-.56-1.97-.82-2.49-.89-.32-.04-1.08.03-2.9.42-1.3.28-2.4.88-3.33,1.34-2.55,1.26-4.7,2.62-5.11,3.04-3.1,3.13-21.16,9.6-28.32,11.8-.25.08-.46-14.55-.29-19.96.2-6.51.34-9.93.15-11.49-.58-4.61.15-3.52-3.57-9.73-1.27-2.13-3.05-5.34-5.04-6.46-1.43-.8-2.6-2.83-8.07-2.4-1.99.16.95-.08-5.48.1-1.25.03-1.76.15-4.11-.1-1.4-.15-3.82-.03-4.64-.1-2.69-.24-5.44-2.76-5.87-3.28-3.1-3.72-4.49-4.66-4.65-4.84-2.37-2.77-2.45-4.45-2.69-6.7-.44-4.07-.39-4.61-.34-6.75.02-1.09.24-4.01.68-5.77s1.34-5.43,1.61-6.21"/>
    <path class="st1" d="M196.38,393.09c0-.2-2.21,23.05-2.15,24.71.42,10.99-2.12,19.02,11.45,36.62,7.2,9.35,9.96,11.58,12.65,13.7,18.91,14.87,31.09,17.3,31.96,16.87.54-.26.47-1.54.23-2.69-.39-1.86-.18-1.97-2.82-7.35-.45-.92-2.61-5.05-3.78-6.48-1.02-1.25-2.2-2.88-2.65-3.34-4.78-4.86-10.14-9.16-14.25-14.97-1.97-2.78-3.57-4.81-5.61-8.78-1.42-2.77-2.7-8.77-4.24-15.11-.22-.89-1.16-6.44-2.15-9.41-.79-2.37-1.71-4.04-2.09-4.7-.36-.62-1.38-1.81-3.7-4.3-2.35-2.53-3.63-3.33-7.28-6.64-.2-.18-.9-.91-2.53-2.49-1.26-1.22-1.97-1.75-2.25-2.7-.27-.9-.8-2.78-.79-2.95Z"/>
    <path class="st1" d="M186.65,517.3s24.82,25.63,51.65,37.57c6.08,2.71,17.67,8.32,32.35,11.48,12.12,2.61,46.05,7.73,81.78-6,19.2-7.38,31.83-18.48,38.48-24,11.19-9.28,28.66-27.79,40.7-54,0,0,8.7-17.96,10.41-43.29.11-1.62-.13-9.66-.12-9.93.86-20.18-3.32-37.37-3.33-36.2,0,.14.14,1.53-.23,3.25-.11.49-.52,1.59-1.03,2.62-.12.25-.98,2.54-.99,2.58-.3.96-.53,1.45-2.08,6.65-.19.63-.54,1.78-.76,3.81-.23,2.11-.67,4.13-.82,5.39-.13,1.11.05,2.61-.07,3.55-.18,1.41-.07,2.43-.21,3.33-.25,1.58-.31,1.97-.53,3-.61,2.79-.46,1.91-.95,3.89-.18.73-.69,4.02-.61,5.5.07,1.11.04,3.45-.78,6.2-.2.66-.36,6.74-.33,6.98.13.88.2,2.57-.13,4.4-.33,1.79-1.6,4.73-1.83,5.38,0,0-2.95,6.8-3.52,7.83-2.74,4.96-16.57,20.15-16.57,20.15-.5.33-6.46,4.24-7.3,4.76,0,0,6.83,4.82.91,10.11-.62.55-1.1.6-3.33,2.09-3.28,2.19-10.5,5.19-11.54,6.1,0,0,9.07-1.01,12.39-.68,0,0,3.3.57,2.61,3.52-.52,2.22-.59,1.83-1.68,2.99-2.59,2.75-6.72,4.57-6.86,4.58-1.94.29-7.11,4.43-7.11,4.43,0,0,7.83,3.99,3.98,5.22-2.06.66-12.94,9.97-15.78,10.89-2.51.81-14.42,4.61-15.59,4.96-5.85,1.76-10,1.97-14.77,2.93-4.03.81-11.31,1.19-13.6.68-7.14-1.57-13.7-1.57-16.43-1.47s-26.19-.6-30.39-.5c-5.86.14-6.83.01-16.96-2.7-8.53-2.28-7.47-3.33-15.26-3.36-11.14-.04-13.31-3.12-21.39-5.12-3.36-.83-6.64-1.54-12.26-3.91-5.81-2.45-3-1.43-3-1.43-6.24-2.91.24-.75-2.09-1.04-3.51-.44-25.04-13.17-25.04-13.17Z"/>
    <ellipse class="st2" cx="265.4" cy="521.56" rx="24.9" ry="82.32" transform="translate(-296.24 685.96) rotate(-79.35)"/>
    <ellipse class="st2" cx="283.3" cy="523.21" rx="24.9" ry="82.32" transform="translate(-277.58 721.75) rotate(-81.06)"/>
  </g>
  <g id="Capa_4">
    <path class="st3" d="M393.47,528.82c-.8,4.79-26.04,19.17-54.52,17.13-30.96-2.22-56.35,2.18-57.04-3.52-.7-5.7,23.72-13.37,54.52-17.13,30.81-3.76,57.98-2.15,57.04,3.52Z"/>
    <path class="st3" d="M389.96,531.75c-4.63,5.18-18.06,13.69-42.05,16.62-23.98,2.92-51.88-1.4-49.35-5.59,3.25-5.4,22.61-14.12,46.59-17.05,23.98-2.92,49,1.32,44.81,6.02Z"/>
  </g>
  <g id="otro_verde">
    <path class="st0" d="M250,485.02s51.22,11.92,75.03,8.05c3.82-.62,3.78-.82,3.78-.82-.12-.48-.18-1.32-.2-4.08-.03-3.62-.21-6.06.04-17.8.17-8.09.38-12.26-1.08-14.99-2.36-4.43-4.87-10.07-9.83-12.33-1-.45-1.45-.8-2.98-.93-.59-.05-4.41.07-10.91.22-.25,0-1.19-.21-2.4-.18,0,0-1.44,0-2.03-.02-1.22-.02-2.78-.1-4.07-.75-1.24-.61-2.75-1.68-4.5-3.74-1.96-2.32-3.05-3.03-4.79-5.19,0,0-1.36-2.63-1.61-5.91-.27-3.63-.27-7,0-8.78.02-.16.42-2.54.6-3.42.25-1.22.44-2.47.97-3.61.23-.5.22-1.8.78-2.71.4-.66.61-.76,1.21-1.85.65-1.19,1.49-2.28,1.66-2.54,1.29-1.97,1.95-2.39,2.08-2.54,1.95-2.32,3.48-4.13,4.89-5.31,3.57-2.97,7.89-5.77,9.84-6.35,4.29-1.26,7.11-1.45,9.18-1.36,1.17.05,2.26.52,3.57,1.04,1.22.48,2.08,1.28,2.63,1.68.7.51,1.2,1.06,1.85,1.85.51.63.93,1.22,1.52,2.18.98,1.59,1.72,2.61,2.35,2.87.6.25.18.27,1.75.71,1.25.35,2.82.17,4.1.22,1.88.07,1.62-.03,3.9.12,3.4.23,4.13.02,6.16.39,2.25.41,2.3.92,4.89,1.93,1.37.54,5.5,1.03,7.36-.37,1.78-1.34,2.22-3.77,2.2-4.68-.01-.58.16-3.88-2.15-6.1-.37-.35-1.09-1.04-2.55-1.51q-.81-.26-3.86-.39c-1.54-.07-1.38-.06-4.93-.46-1.98-.22-2.5-.35-4.1-.84-.28-.08-.9-.44-1.4-.91-.6-.56-1.67-1.73-3.76-4.51-1.17-1.56-1.26-2.69-6.47-3.26-2.82-.31-7.14-.29-7.77-.17-3.87.73-3.28.62-6.35.97-.99.11-3.34.03-4.94-1.12-.58-.42-.84-1.01-1.77-2.03-.15-.16-.78-1.26-1.07-2.25-.4-1.41-.43-2.3-.48-2.68-.09-.78,0-1.31-.06-1.87-.07-.86-.16-1.12-.22-1.49-.1-.63.11-1.22.3-1.72.22-.58.3-.67,1.08-1.92.08-.13.46-.59.69-.8.12-.11.61-.65.9-.9.32-.27,1.01-.87,1.47-1.12.95-.51,1.39-.44,2.21-.56.37-.05,1.42-.24,2.05-.31.61-.07,2.33-.03,3.75.31,1.12.27,2.84.72,3.44.71.7-.01,1.06-.13,1.06-.13.34-.07.96-.25,1.5-.51.44-.21.73-.45,1.02-.65.9-.63,1.86-1.41,2.29-1.93.89-1.08.6-1.73,1.13-2.28.34-.36.71-1.27.79-2.22,0,0,.18-1.68.1-2.7-.15-2.03-.42-4.84-.42-4.84-.02-4.7,1.8-5.96,4.26-8.32,1.42-1.36,2.1-1.31,6.16-4.55,4.86-3.87,5.3-4.21,5.36-5.18.05-.72-.15-1.69-2.15-3.03-1.88-1.26-2.32-1.53-4.98-2.73-.7-.31-2.92-1.2-4.58-1.37-1.69-.17-3.92.02-5.12.64-.75.39-2.94,1.41-8.54,6.82-4.82,4.65-4.91,4.24-6.42,4.92-3.26,1.47-8.89-.28-13.14.14-3.56.35-6.97,3.28-8.27,4.34-2.17,1.76-3.6,3.27-4,8.2-.38,4.64,2.9,5.85,3.24,9.79.36,4.11-1.4,4.8-3.2,6.62-1.53,1.55-2.85,1.39-3.82,1.83-2.97,1.34-7.42,3.1-8.77,3.85-4.27,2.35-7.82,3.41-9.29,3.88-6.49,2.06-8.77,3.51-10.92,4.99-1.11.76-6.37,4.54-8.15,5.97-.2.16-5.58,4.92-7.21,6.46-3.71,3.5-6.44,8.59-7.3,10.05-6.53,11.12-6.46,24.03-3.11,28.59.95,1.29,2.54,3.38,7.02,5.85,9,4.96,12.4,6.18,13.8,7.46,2.14,1.95,7.99,8.8,6.68,16.86-.7,4.3-3.11,9.46-3.87,11.38-1.09,2.75-1.91,4.67-2.03,5.37-.06.34-.15.7-.15.7-.16.99-.11,1.69-.13,2.01-.03.6-.21,1.48-.89,2.62,1.11,3.14.17,4.35.05,5.07Z"/>
    <path class="st0" d="M431.16,429.82c.41,6.99-2.15,12.24-1.84,16.19.58,7.55-.05,6.36-1.3,12.72-.46,2.36-4.27,8.64-6.94,12.5-2.85,4.12-10.28,12.24-10.41,12.4-4.05,4.93-10.79,8.65-10.79,8.65,0,0-3.75-.32-5.22,0-2.99.66-5.48.88-10.37,2.04-4.49,1.06-13.93,1.48-13.93,1.48,5.53-1.46,9.69-5.66,10.91-7.18.74-.93,1.66-2.07,1.66-2.07.48-.61,1.81-2.64,1.97-2.87.52-.77,1.55-2.22,1.97-3.07.38-.76,1.13-2.2,1.35-2.56.12-.19.45-1.01,1.14-2.61.16-.38.61-1.64,1.21-2.74.54-.99.75-1.54,1.08-2.43.54-1.48.4-1.45.54-1.95.35-1.35-.04-3.18-1.35-4.28-.71-.6-2.77-1.76-4.49.22-.43.5-1.05,1.09-1.61,1.63-.53.51-1.37,1.45-1.86,1.92-.22.21-.99,1.32-1.99,2.75-.48.68-1,1.28-2.16,2.53-.38.41-1.63,1.67-2.97,2.89-.74.67-1.76.76-2.02.74-1.18-.1-1.09-1.74-.89-3.06.28-1.86.02-2.14.02-2.61,0-.82-.13-2,.31-5.61.3-2.41.46-3.22.74-4.13.17-.55.34-1.01.52-1.46,2.57-6.41,4.77-6.37,6.79-7.59,0,0,1.73-1.21,3.34-3.33.68-.9,1.29-2.6,1.44-2.95.24-.59.98-1.77,1.74-2.5,1.91-1.86,2.03-1.48,2.81-2.42.91-1.11,1.37-2.04.74-4.03-.19-.59-.49-1.46-1.32-2.19-.7-.61-1.46-.85-1.85-.88-1.38-.12-1.56.46-5.02.48-2.1.01-3.59-.56-5.15-1.48-1.25-.74-1.81-1.34-2.08-1.56-.46-.38-.31-.79-1.83-3-1.1-1.61-1.37-2-1.67-2.38-.67-.86-.73-1.1-1.22-1.61-.23-.24-.92-1.16-1.41-1.82-1.18-1.61-1.52-2.18-1.96-2.72-.44-.53-.71-.93-1.17-1.77-1.25-2.28-1.75-3.56-2.13-4.99-.08-.3-.43-1.52-.55-3.06-.14-1.78-.75-4.76.06-5.39.23-.18.65-.17.97-.08.28.08.58.27.85.65,1.12,1.61,2.78,4.14,3.46,5.08.82,1.12,1.63,1.79,2.91,3.35.42.5.62.27.89.98.36.94.8,1.75,1.06,2.18.3.8.72,1.83,1.34,2.99.64,1.18,1.04,1.9,1.6,2.62.9,1.16,2.53,3.18,5.34,4.62.49.25.9.39,1.31.57,1.98.83,4.96.07,5.84-.5,1.95-1.26,1.58-1.49,5.7-5.39.65-.61,2.76-1.98,3.62-2.98.33-.38.98-1.17,1.57-2.69.76-1.93.36-2.85.28-3.18-.25-1.13-1.14-2.45-1.62-2.82-2.83-2.16-3.84-2.91-6.1-4.87-1.88-1.63-3.63-2.93-4.42-4.26-.06-.1-.61-3.6-.06-4.05.6-.5,3.82,1.38,7.25,2.4,2.69.8,4.12.67,5.5.61,3.55-.16,5.72,1.01,6.43,1.22,3.75,1.09,6.65,6.5,7.26,7.43,2.28,3.48,4.58,10,5.47,11.36,0,0,2.13,5.05,2.73,6.4.42.96,1.5,2.57,2.01,3.12.42.45.99,1.42,1.98,1.85,1.12.49,1.23.65,1.76.74.84.13,1.67-.46,2.23-2.15Z"/>
  </g>
</svg>